{
  "source": "C:\\Users\\Peter\\Desktop\\stuff\\MIUN\\quantitative_research\\video_compression\\videos\\BVI-HD\\BVI-HD_CDVL_videos\\ORIG\\MartialArts_1920x1080_60fps.mp4",
  "output": "C:\\Users\\Peter\\Desktop\\stuff\\MIUN\\quantitative_research\\video_compression\\compressed_videos\\BVI-HD\\vp9\\2\\MartialArts_1920x1080_60fps_vp9.webm",
  "codec": "vp9",
  "ok": "Input #0, mov,mp4,m4a,3gp,3g2,mj2, from 'C:\\Users\\Peter\\Desktop\\stuff\\MIUN\\quantitative_research\\video_compression\\videos\\BVI-HD\\BVI-HD_CDVL_videos\\ORIG\\MartialArts_1920x1080_60fps.mp4':\n  Metadata:\n    major_brand     : isom\n    minor_version   : 512\n    compatible_brands: isomiso2avc1mp41\n    encoder         : Lavf54.28.101\n  Duration: 00:00:05.00, start: 0.000000, bitrate: 120609 kb/s\n  Stream #0:0[0x1](und): Video: h264 (High 4:4:4 Predictive) (avc1 / 0x31637661), yuv420p(progressive), 1920x1080, 120605 kb/s, 60 fps, 60 tbr, 60 tbn (default)\n    Metadata:\n      handler_name    : VideoHandler\n      vendor_id       : [0][0][0][0]\n[out#0/webm @ 000001ce55228f80] Codec AVOption b:a (set bitrate (in bits/s)) has not been used for any stream. The most likely reason is either wrong type (e.g. a video option with no video streams) or that it is a private option of some decoder which was not actually used for any stream.\nStream mapping:\n  Stream #0:0 -> #0:0 (h264 (native) -> vp9 (libvpx-vp9))\nPress [q] to stop, [?] for help\n[libvpx-vp9 @ 000001ce558005c0] v1.15.2-100-g40561f514\nOutput #0, webm, to 'C:\\Users\\Peter\\Desktop\\stuff\\MIUN\\quantitative_research\\video_compression\\compressed_videos\\BVI-HD\\vp9\\2\\MartialArts_1920x1080_60fps_vp9.webm':\n  Metadata:\n    major_brand     : isom\n    minor_version   : 512\n    compatible_brands: isomiso2avc1mp41\n    encoder         : Lavf62.3.100\n  Stream #0:0(und): Video: vp9, yuv420p(tv, progressive), 1920x1080, q=2-31, 2000 kb/s, 60 fps, 1k tbn (default)\n    Metadata:\n      encoder         : Lavc62.11.100 libvpx-vp9\n      handler_name    : VideoHandler\n      vendor_id       : [0][0][0][0]\n    Side data:\n      cpb: bitrate max/min/avg: 0/0/0 buffer size: 2000000 vbv_delay: N/A\nframe=    4 fps=0.0 q=50.0 size=       1KiB time=00:00:00.06 bitrate=  76.0kbits/s speed=0.129x elapsed=0:00:00.51    \nframe=   12 fps= 12 q=33.0 size=       1KiB time=00:00:00.20 bitrate=  25.3kbits/s speed=0.192x elapsed=0:00:01.04    \nframe=   18 fps= 11 q=30.0 size=       1KiB time=00:00:00.30 bitrate=  16.9kbits/s speed=0.19x elapsed=0:00:01.57    \nframe=   24 fps= 11 q=28.0 size=       1KiB time=00:00:00.40 bitrate=  12.7kbits/s speed=0.19x elapsed=0:00:02.10    \nframe=   31 fps= 12 q=28.0 size=       1KiB time=00:00:00.51 bitrate=   9.8kbits/s speed=0.196x elapsed=0:00:02.63    \nframe=   38 fps= 12 q=31.0 size=       1KiB time=00:00:00.63 bitrate=   8.0kbits/s speed=0.201x elapsed=0:00:03.15    \nframe=   46 fps= 13 q=34.0 size=       1KiB time=00:00:00.76 bitrate=   6.6kbits/s speed=0.209x elapsed=0:00:03.67    \nframe=   53 fps= 13 q=35.0 size=       1KiB time=00:00:00.88 bitrate=   5.7kbits/s speed=0.211x elapsed=0:00:04.17    \nframe=   61 fps= 13 q=21.0 size=       1KiB time=00:00:01.01 bitrate=   5.0kbits/s speed=0.217x elapsed=0:00:04.69    \nframe=   69 fps= 13 q=37.0 size=       1KiB time=00:00:01.15 bitrate=   4.4kbits/s speed=0.219x elapsed=0:00:05.25    \nframe=   77 fps= 13 q=36.0 size=       1KiB time=00:00:01.28 bitrate=   3.9kbits/s speed=0.222x elapsed=0:00:05.77    \nframe=   84 fps= 13 q=37.0 size=       1KiB time=00:00:01.40 bitrate=   3.6kbits/s speed=0.222x elapsed=0:00:06.30    \nframe=   92 fps= 13 q=36.0 size=       1KiB time=00:00:01.53 bitrate=   3.3kbits/s speed=0.225x elapsed=0:00:06.82    \nframe=  100 fps= 14 q=34.0 size=       1KiB time=00:00:01.66 bitrate=   3.0kbits/s speed=0.227x elapsed=0:00:07.33    \nframe=  108 fps= 14 q=35.0 size=       1KiB time=00:00:01.80 bitrate=   2.8kbits/s speed=0.229x elapsed=0:00:07.86    \nframe=  116 fps= 14 q=34.0 size=       1KiB time=00:00:01.93 bitrate=   2.6kbits/s speed=0.231x elapsed=0:00:08.37    \nframe=  124 fps= 14 q=32.0 size=       1KiB time=00:00:02.06 bitrate=   2.5kbits/s speed=0.232x elapsed=0:00:08.89    \nframe=  131 fps= 14 q=29.0 size=     256KiB time=00:00:02.18 bitrate= 960.5kbits/s speed=0.232x elapsed=0:00:09.42    \nframe=  139 fps= 14 q=31.0 size=     256KiB time=00:00:02.31 bitrate= 905.2kbits/s speed=0.233x elapsed=0:00:09.93    \nframe=  148 fps= 14 q=33.0 size=     256KiB time=00:00:02.46 bitrate= 850.2kbits/s speed=0.236x elapsed=0:00:10.44    \nframe=  155 fps= 14 q=34.0 size=     256KiB time=00:00:02.58 bitrate= 811.8kbits/s speed=0.235x elapsed=0:00:10.98    \nframe=  163 fps= 14 q=37.0 size=     256KiB time=00:00:02.71 bitrate= 772.0kbits/s speed=0.236x elapsed=0:00:11.50    \nframe=  171 fps= 14 q=40.0 size=     256KiB time=00:00:02.85 bitrate= 735.8kbits/s speed=0.237x elapsed=0:00:12.02    \nframe=  179 fps= 14 q=40.0 size=     256KiB time=00:00:02.98 bitrate= 703.0kbits/s speed=0.238x elapsed=0:00:12.54    \nframe=  187 fps= 14 q=42.0 size=     256KiB time=00:00:03.11 bitrate= 672.9kbits/s speed=0.239x elapsed=0:00:13.06    \nframe=  195 fps= 14 q=40.0 size=     256KiB time=00:00:03.25 bitrate= 645.3kbits/s speed=0.239x elapsed=0:00:13.58    \nframe=  203 fps= 14 q=38.0 size=     256KiB time=00:00:03.38 bitrate= 619.8kbits/s speed=0.24x elapsed=0:00:14.11    \nframe=  209 fps= 14 q=39.0 size=     256KiB time=00:00:03.48 bitrate= 602.1kbits/s speed=0.238x elapsed=0:00:14.63    \nframe=  213 fps= 14 q=39.0 size=     256KiB time=00:00:03.55 bitrate= 590.7kbits/s speed=0.234x elapsed=0:00:15.15    \nframe=  218 fps= 14 q=38.0 size=     256KiB time=00:00:03.63 bitrate= 577.2kbits/s speed=0.232x elapsed=0:00:15.67    \nframe=  224 fps= 14 q=21.0 size=     256KiB time=00:00:03.73 bitrate= 561.7kbits/s speed=0.231x elapsed=0:00:16.19    \nframe=  233 fps= 14 q=35.0 size=     256KiB time=00:00:03.86 bitrate= 542.4kbits/s speed=0.231x elapsed=0:00:16.72    \nframe=  240 fps= 14 q=35.0 size=     256KiB time=00:00:04.00 bitrate= 524.3kbits/s speed=0.232x elapsed=0:00:17.25    \nframe=  247 fps= 14 q=36.0 size=     256KiB time=00:00:04.11 bitrate= 509.4kbits/s speed=0.231x elapsed=0:00:17.78    \nframe=  254 fps= 14 q=37.0 size=     256KiB time=00:00:04.23 bitrate= 495.4kbits/s speed=0.231x elapsed=0:00:18.31    \nframe=  260 fps= 14 q=37.0 size=     768KiB time=00:00:04.31 bitrate=1457.5kbits/s speed=0.229x elapsed=0:00:18.83    \nframe=  266 fps= 14 q=37.0 size=     768KiB time=00:00:04.43 bitrate=1419.1kbits/s speed=0.229x elapsed=0:00:19.37    \nframe=  270 fps= 14 q=37.0 size=     768KiB time=00:00:04.50 bitrate=1398.1kbits/s speed=0.226x elapsed=0:00:19.91    \nframe=  276 fps= 13 q=37.0 size=     768KiB time=00:00:04.60 bitrate=1367.7kbits/s speed=0.225x elapsed=0:00:20.46    \nframe=  276 fps= 13 q=37.0 size=     768KiB time=00:00:04.60 bitrate=1367.7kbits/s speed=0.219x elapsed=0:00:21.00    \nframe=  276 fps= 13 q=37.0 size=     768KiB time=00:00:04.60 bitrate=1367.7kbits/s speed=0.213x elapsed=0:00:21.55    \nframe=  276 fps= 12 q=37.0 size=     768KiB time=00:00:04.60 bitrate=1367.7kbits/s speed=0.208x elapsed=0:00:22.11    \nframe=  276 fps= 12 q=37.0 size=     768KiB time=00:00:04.60 bitrate=1367.7kbits/s speed=0.203x elapsed=0:00:22.67    \n[out#0/webm @ 000001ce55228f80] video:1151KiB audio:0KiB subtitle:0KiB other streams:0KiB global headers:0KiB muxing overhead: 0.240724%\nframe=  300 fps= 13 q=41.0 Lsize=    1154KiB time=00:00:05.00 bitrate=1890.9kbits/s speed=0.22x elapsed=0:00:22.75    \n",
  "seconds": 22.983479976654053,
  "probe_out": {}
}